<svg xmlns="http://www.w3.org/2000/svg" xmlns:xlink="http://www.w3.org/1999/xlink" width="500" zoomAndPan="magnify" viewBox="0 0 375 374.999991" height="500" preserveAspectRatio="xMidYMid meet" version="1.0"><defs><g/><clipPath id="9b976bf29b"><path d="M 0 134.566406 L 375 134.566406 L 375 240.433594 L 0 240.433594 Z M 0 134.566406 " clip-rule="nonzero"/></clipPath></defs><g clip-path="url(#9b976bf29b)"><path fill="#d7ff64" d="M 0 134.566406 L 375.09375 134.566406 L 375.09375 240.433594 L 0 240.433594 Z M 0 134.566406 " fill-opacity="1" fill-rule="nonzero"/></g><g fill="#000000" fill-opacity="1"><g transform="translate(14.70118, 214.796759)"><g><path d="M 31.734375 -43.5 C 35.628906 -43.5 39.171875 -42.601562 42.359375 -40.8125 C 45.546875 -39.03125 48.070312 -36.46875 49.9375 -33.125 C 51.800781 -29.78125 52.734375 -25.894531 52.734375 -21.46875 C 52.734375 -17.050781 51.800781 -13.15625 49.9375 -9.78125 C 48.070312 -6.414062 45.546875 -3.828125 42.359375 -2.015625 C 39.171875 -0.203125 35.628906 0.703125 31.734375 0.703125 C 26.109375 0.703125 21.898438 -0.953125 19.109375 -4.265625 L 19.109375 0 L 4.8125 0 L 4.8125 -58.578125 L 19.8125 -58.578125 L 19.8125 -39.078125 C 22.707031 -42.023438 26.679688 -43.5 31.734375 -43.5 Z M 28.578125 -11.21875 C 31.210938 -11.21875 33.367188 -12.125 35.046875 -13.9375 C 36.734375 -15.75 37.578125 -18.257812 37.578125 -21.46875 C 37.578125 -24.632812 36.734375 -27.109375 35.046875 -28.890625 C 33.367188 -30.679688 31.210938 -31.578125 28.578125 -31.578125 C 25.953125 -31.578125 23.796875 -30.679688 22.109375 -28.890625 C 20.421875 -27.109375 19.578125 -24.632812 19.578125 -21.46875 C 19.578125 -18.257812 20.421875 -15.75 22.109375 -13.9375 C 23.796875 -12.125 25.953125 -11.21875 28.578125 -11.21875 Z M 28.578125 -11.21875 "/></g></g></g><g fill="#000000" fill-opacity="1"><g transform="translate(69.57511, 214.796759)"><g><path d="M 26.296875 0.703125 C 21.710938 0.703125 17.578125 -0.238281 13.890625 -2.125 C 10.210938 -4.019531 7.332031 -6.648438 5.25 -10.015625 C 3.164062 -13.390625 2.125 -17.207031 2.125 -21.46875 C 2.125 -25.6875 3.164062 -29.476562 5.25 -32.84375 C 7.332031 -36.207031 10.203125 -38.820312 13.859375 -40.6875 C 17.515625 -42.5625 21.660156 -43.5 26.296875 -43.5 C 30.921875 -43.5 35.078125 -42.5625 38.765625 -40.6875 C 42.453125 -38.820312 45.320312 -36.21875 47.375 -32.875 C 49.425781 -29.539062 50.453125 -25.738281 50.453125 -21.46875 C 50.453125 -17.207031 49.425781 -13.390625 47.375 -10.015625 C 45.320312 -6.648438 42.453125 -4.019531 38.765625 -2.125 C 35.078125 -0.238281 30.921875 0.703125 26.296875 0.703125 Z M 26.296875 -11.21875 C 28.921875 -11.21875 31.078125 -12.125 32.765625 -13.9375 C 34.453125 -15.75 35.296875 -18.257812 35.296875 -21.46875 C 35.296875 -24.632812 34.453125 -27.109375 32.765625 -28.890625 C 31.078125 -30.679688 28.921875 -31.578125 26.296875 -31.578125 C 23.660156 -31.578125 21.5 -30.679688 19.8125 -28.890625 C 18.132812 -27.109375 17.296875 -24.632812 17.296875 -21.46875 C 17.296875 -18.257812 18.132812 -15.75 19.8125 -13.9375 C 21.5 -12.125 23.660156 -11.21875 26.296875 -11.21875 Z M 26.296875 -11.21875 "/></g></g></g><g fill="#000000" fill-opacity="1"><g transform="translate(122.159349, 214.796759)"><g><path d="M 32.6875 -43.5 C 38 -43.5 42.273438 -41.921875 45.515625 -38.765625 C 48.753906 -35.609375 50.375 -30.84375 50.375 -24.46875 L 50.375 0 L 35.375 0 L 35.375 -22.03125 C 35.375 -27.875 33.03125 -30.796875 28.34375 -30.796875 C 25.757812 -30.796875 23.691406 -29.953125 22.140625 -28.265625 C 20.585938 -26.578125 19.8125 -24.050781 19.8125 -20.6875 L 19.8125 0 L 4.8125 0 L 4.8125 -42.796875 L 19.109375 -42.796875 L 19.109375 -38.140625 C 20.796875 -39.867188 22.796875 -41.191406 25.109375 -42.109375 C 27.421875 -43.035156 29.945312 -43.5 32.6875 -43.5 Z M 32.6875 -43.5 "/></g></g></g><g fill="#000000" fill-opacity="1"><g transform="translate(177.112248, 214.796759)"><g><path d="M 50.296875 -58.578125 L 50.296875 0 L 36 0 L 36 -4.265625 C 33.207031 -0.953125 29.023438 0.703125 23.453125 0.703125 C 19.554688 0.703125 16 -0.203125 12.78125 -2.015625 C 9.570312 -3.828125 7.035156 -6.414062 5.171875 -9.78125 C 3.304688 -13.15625 2.375 -17.050781 2.375 -21.46875 C 2.375 -25.894531 3.304688 -29.78125 5.171875 -33.125 C 7.035156 -36.46875 9.570312 -39.03125 12.78125 -40.8125 C 16 -42.601562 19.554688 -43.5 23.453125 -43.5 C 28.554688 -43.5 32.503906 -42.023438 35.296875 -39.078125 L 35.296875 -58.578125 Z M 26.609375 -11.21875 C 29.179688 -11.21875 31.3125 -12.125 33 -13.9375 C 34.6875 -15.75 35.53125 -18.257812 35.53125 -21.46875 C 35.53125 -24.632812 34.703125 -27.109375 33.046875 -28.890625 C 31.390625 -30.679688 29.242188 -31.578125 26.609375 -31.578125 C 23.972656 -31.578125 21.8125 -30.679688 20.125 -28.890625 C 18.445312 -27.109375 17.609375 -24.632812 17.609375 -21.46875 C 17.609375 -18.257812 18.445312 -15.75 20.125 -13.9375 C 21.8125 -12.125 23.972656 -11.21875 26.609375 -11.21875 Z M 26.609375 -11.21875 "/></g></g></g><g fill="#000000" fill-opacity="1"><g transform="translate(232.223057, 214.796759)"><g><path d="M 4.8125 -42.796875 L 19.8125 -42.796875 L 19.8125 0 L 4.8125 0 Z M 12.3125 -47.53125 C 9.570312 -47.53125 7.359375 -48.289062 5.671875 -49.8125 C 3.992188 -51.34375 3.15625 -53.238281 3.15625 -55.5 C 3.15625 -57.769531 3.992188 -59.664062 5.671875 -61.1875 C 7.359375 -62.71875 9.570312 -63.484375 12.3125 -63.484375 C 15.050781 -63.484375 17.257812 -62.757812 18.9375 -61.3125 C 20.625 -59.863281 21.46875 -58.003906 21.46875 -55.734375 C 21.46875 -53.367188 20.625 -51.410156 18.9375 -49.859375 C 17.257812 -48.304688 15.050781 -47.53125 12.3125 -47.53125 Z M 12.3125 -47.53125 "/></g></g></g><g fill="#000000" fill-opacity="1"><g transform="translate(256.936059, 214.796759)"><g><path d="M 21.15625 -41.21875 L 31.34375 -41.21875 L 31.34375 -30 L 21.546875 -30 L 21.546875 0 L 6.546875 0 L 6.546875 -30 L 0.3125 -30 L 0.3125 -41.21875 L 6.546875 -41.21875 L 6.546875 -42.3125 C 6.546875 -47.53125 8.113281 -51.664062 11.25 -54.71875 C 14.382812 -57.769531 18.765625 -59.296875 24.390625 -59.296875 C 26.285156 -59.296875 28.128906 -59.109375 29.921875 -58.734375 C 31.710938 -58.367188 33.1875 -57.816406 34.34375 -57.078125 L 30.640625 -46.5 C 29.160156 -47.34375 27.660156 -47.765625 26.140625 -47.765625 C 24.554688 -47.765625 23.328125 -47.289062 22.453125 -46.34375 C 21.585938 -45.394531 21.15625 -44 21.15625 -42.15625 Z M 21.15625 -41.21875 "/></g></g></g><g fill="#000000" fill-opacity="1"><g transform="translate(288.991893, 214.796759)"><g><path d="M 49.890625 -42.796875 L 31.421875 1.734375 C 29.265625 6.992188 26.632812 10.691406 23.53125 12.828125 C 20.425781 14.960938 16.632812 16.03125 12.15625 16.03125 C 9.894531 16.03125 7.617188 15.671875 5.328125 14.953125 C 3.035156 14.242188 1.179688 13.3125 -0.234375 12.15625 L 4.96875 1.65625 C 5.8125 2.445312 6.828125 3.066406 8.015625 3.515625 C 9.203125 3.960938 10.398438 4.1875 11.609375 4.1875 C 13.023438 4.1875 14.191406 3.894531 15.109375 3.3125 C 16.035156 2.738281 16.816406 1.816406 17.453125 0.546875 L -0.875 -42.796875 L 14.53125 -42.796875 L 25.03125 -16.65625 L 35.609375 -42.796875 Z M 49.890625 -42.796875 "/></g></g></g><g fill="#000000" fill-opacity="1"><g transform="translate(337.944199, 214.796759)"><g><path d="M 11.125 0.703125 C 8.601562 0.703125 6.472656 -0.132812 4.734375 -1.8125 C 2.992188 -3.5 2.125 -5.632812 2.125 -8.21875 C 2.125 -10.84375 2.976562 -12.96875 4.6875 -14.59375 C 6.40625 -16.226562 8.550781 -17.046875 11.125 -17.046875 C 13.757812 -17.046875 15.921875 -16.226562 17.609375 -14.59375 C 19.296875 -12.96875 20.140625 -10.84375 20.140625 -8.21875 C 20.140625 -5.632812 19.28125 -3.5 17.5625 -1.8125 C 15.851562 -0.132812 13.707031 0.703125 11.125 0.703125 Z M 11.125 0.703125 "/></g></g></g></svg>